<svg xmlns="http://www.w3.org/2000/svg" xmlns:xlink="http://www.w3.org/1999/xlink" width="90.96" height="91.2" viewBox="0 0 90.96 91.2">
  <defs>
    <clipPath id="clip-path">
      <circle id="Ellipse_83" data-name="Ellipse 83" cx="30.1" cy="30.1" r="30.1" transform="translate(13.4 15)"/>
    </clipPath>
  </defs>
  <g id="ig_logo_expanded_New" data-name="ig logo expanded_New" transform="translate(1.95 0.48)">
    <circle id="Ellipse_81" data-name="Ellipse 81" cx="41.8" cy="41.8" r="41.8" transform="translate(1.3 3.3)" fill="#fff"/>
    <circle id="Ellipse_82" data-name="Ellipse 82" cx="41.8" cy="41.8" r="41.8" transform="translate(1.3 3.3)" fill="none" stroke="#000" stroke-miterlimit="10" stroke-width="0.5"/>
    <rect id="Rectangle_248" data-name="Rectangle 248" width="90.96" height="91.2" transform="translate(-1.95 -0.48)" fill="none" opacity="0.1"/>
    <g id="Group_541" data-name="Group 541">
      <g id="Group_540" data-name="Group 540" clip-path="url(#clip-path)">
        <path id="Path_523" data-name="Path 523" d="M45.1,35.7C-2.4,20-62.2,49.3-109.7,33.7c2.8-11.3,5.5-22.7,8.2-34C-54.6,20.3,4.6-4.6,51.5,16.1,49.4,22.6,47.2,29.1,45.1,35.7Z" fill="#ff6700"/>
        <path id="Path_524" data-name="Path 524" d="M38.8,55.1C-9.3,44.4-69.6,78.1-117.8,67.4c2.7-11.3,5.5-22.7,8.2-34C-62.1,49-2.4,19.8,45.2,35.5,43,42,40.9,48.6,38.8,55.1Z" fill="#fff"/>
        <path id="Path_525" data-name="Path 525" d="M32.5,74.4c-48.8-5.7-109.6,32.2-158.4,26.5,2.7-11.3,5.5-22.7,8.2-34C-69.6,77.6-9.4,44,38.8,54.8,36.7,61.3,34.6,67.8,32.5,74.4Z" fill="#138808"/>
        <path id="Path_526" data-name="Path 526" d="M38.9,54.4c47.5,15.6,107.3-13.6,154.8,2-2.7,11.3-5.5,22.7-8.2,34C138.7,69.8,79.4,94.6,32.5,74Z" fill="#fc0"/>
        <path id="Path_527" data-name="Path 527" d="M45.2,35C93.4,45.7,153.6,12,201.8,22.7c-2.7,11.3-5.5,22.7-8.2,34C146.1,41.1,86.3,70.3,38.8,54.6,40.9,48.1,43.1,41.6,45.2,35Z" fill="red"/>
        <path id="Path_528" data-name="Path 528" d="M51.5,15.8C100.4,21.6,161.1-16.5,210-10.7c-2.7,11.3-5.5,22.7-8.2,34C153.6,12.5,93.3,46.1,45.1,35.4,47.3,28.8,49.4,22.3,51.5,15.8Z"/>
      </g>
    </g>
    <circle id="Ellipse_84" data-name="Ellipse 84" cx="30.1" cy="30.1" r="30.1" transform="translate(13.4 15)" fill="none" stroke="#000" stroke-miterlimit="10" stroke-width="0.5"/>
    <path id="Path_529" data-name="Path 529" d="M9.7,40.8l-4.3-.6.1-.7,4.3.6Z"/>
    <path id="Path_530" data-name="Path 530" d="M9,34H8.4l.3.2c.1.1.2.1.3.2l1.9,1.7-2.6.4H7.7l.3.1.3.1,2,1-.3.7L5.9,36.2l3-.5h.6c-.1-.1-.3-.2-.4-.3L9,35.2l-2.3-2,4.7.2-.2.6Z"/>
    <path id="Path_531" data-name="Path 531" d="M10.6,30.6l1.8.8-.3.6-4-1.8.5-1,.3-.6.3-.3a.9.9,0,0,1,.5-.1c.2,0,.4.1.6.1.2.1.3.2.5.3a.764.764,0,0,1,.2.5v.4a4.875,4.875,0,0,0-.3.7l-.1.2Zm-.6-.2.1-.2a1.884,1.884,0,0,0,.2-.8c0-.2-.2-.3-.3-.4a.446.446,0,0,0-.5,0,1.794,1.794,0,0,0-.5.7l-.1.2Z"/>
    <path id="Path_532" data-name="Path 532" d="M15.4,26.1l-1.2-.2-.9,1.5.7,1-.5.6-2.7-4.2,5,.6Zm-2.6.7.6-1-1.1-.1h-.2l-.3-.1.2.2.1.2Z"/>
    <path id="Path_533" data-name="Path 533" d="M16.4,19.5a1.854,1.854,0,0,0-.7.2,2.651,2.651,0,0,0-.6.5,1.845,1.845,0,0,0-.5,1.2A1.831,1.831,0,0,0,16.4,23a1.606,1.606,0,0,0,1.1-.5,2.092,2.092,0,0,0,.4-.6A3.085,3.085,0,0,0,18,21l.6.5a1.854,1.854,0,0,1-.2.7,2.092,2.092,0,0,1-.4.6,2.6,2.6,0,0,1-1.6.9,2.769,2.769,0,0,1-.9-.1,2.365,2.365,0,0,1-1.4-1.2,2.92,2.92,0,0,1-.2-.9,2.769,2.769,0,0,1,.1-.9,2.177,2.177,0,0,1,.5-.8c.2-.2.4-.3.6-.5.2-.1.5-.2.7-.3Z"/>
    <path id="Path_534" data-name="Path 534" d="M18.8,16.6l2.5,2.9-.5.5-2.5-2.9-.9.8-.4-.5,2.3-2,.4.5Z"/>
    <path id="Path_535" data-name="Path 535" d="M23.5,17.8,21,14.2l.6-.4,2.5,3.6Z"/>
    <path id="Path_536" data-name="Path 536" d="M25.8,16.2l-2.1-4,3.7,1.1.3.1.4.1-1.4-2.7.6-.3,2.1,4-3.8-1.1-.3-.1-.3-.1,1.4,2.7Z"/>
    <path id="Path_537" data-name="Path 537" d="M32.8,10.8l1.7-.5v.1l.1.3a1.583,1.583,0,0,1-.1,1.5,1.761,1.761,0,0,1-1.3.9,3.4,3.4,0,0,1-1,.1,1.884,1.884,0,0,1-.8-.2,1.344,1.344,0,0,1-.7-.6,2.01,2.01,0,0,1-.4-.8,2.769,2.769,0,0,1-.1-.9,1.613,1.613,0,0,1,.3-.9,1.344,1.344,0,0,1,.6-.7,2.01,2.01,0,0,1,.8-.4,2.769,2.769,0,0,1,.9-.1,3.178,3.178,0,0,1,.9.3l-.4.5a1.421,1.421,0,0,0-.6-.2,1.268,1.268,0,0,0-.6.1,1.589,1.589,0,0,0-1,.8,1.791,1.791,0,0,0,.7,2.3,1.9,1.9,0,0,0,1.3.1,1.555,1.555,0,0,0,.8-.6.783.783,0,0,0,.1-.8V11l-1,.3Z"/>
    <path id="Path_538" data-name="Path 538" d="M43.2,9.3V9a.367.367,0,0,0-.1-.3A.367.367,0,0,1,43,9c0,.1-.1.2-.1.3l-1,2.4L40.6,9.4a.367.367,0,0,1-.1-.3c0-.1-.1-.2-.1-.3v.6L40,11.6h-.7L40.2,7l1.4,2.7a.349.349,0,0,1,.1.2c0,.1.1.2.2.4a1.689,1.689,0,0,1,.2-.5V9.7l1.1-2.8,1.3,4.5h-.7Z"/>
    <path id="Path_539" data-name="Path 539" d="M46,11.6l.4-4.4.7.1-.4,4.4Z"/>
    <path id="Path_540" data-name="Path 540" d="M48.8,12l.9-4.3.7.1-.7,3.7,1.6.3-.1.6Z"/>
    <path id="Path_541" data-name="Path 541" d="M52.6,12.9,54,8.7l.7.2-1.1,3.6L55,13l-.2.6Z"/>
    <path id="Path_542" data-name="Path 542" d="M56.4,14.2l1.8-4,.7.3-1.8,4Z"/>
    <path id="Path_543" data-name="Path 543" d="M63.9,15.8a2.068,2.068,0,0,1-1.4,1,1.387,1.387,0,0,1-.9,0,1.909,1.909,0,0,1-.8-.3,4.349,4.349,0,0,1-.7-.6,2.01,2.01,0,0,1-.4-.8,1.388,1.388,0,0,1,0-.9,3.178,3.178,0,0,1,.3-.9,4.35,4.35,0,0,1,.6-.7,2.01,2.01,0,0,1,.8-.4,1.387,1.387,0,0,1,.9,0A2.349,2.349,0,0,1,64.2,14a1.388,1.388,0,0,1,0,.9A4.649,4.649,0,0,1,63.9,15.8Zm-.7-.3a1.721,1.721,0,0,0,.2-1.2.864.864,0,0,0-.3-.6c-.1-.2-.3-.3-.4-.4a1.421,1.421,0,0,0-.6-.2h-.6c-.2.1-.4.1-.6.3a1,1,0,0,0-.4.5,1.421,1.421,0,0,0-.2.6v.6a.864.864,0,0,0,.3.6,1,1,0,0,0,.5.4,1.421,1.421,0,0,0,.6.2h.6a2.276,2.276,0,0,0,.9-.8Z"/>
    <path id="Path_544" data-name="Path 544" d="M64.2,18.8l3-3.4.3,3.9V20l2-2.3.5.5-3,3.4-.3-3.9v-.6l-2,2.3Z"/>
    <path id="Path_545" data-name="Path 545" d="M70.3,25.2l3.6-2.5.4.6-3.1,2.2.9,1.3-.5.4Z"/>
    <path id="Path_546" data-name="Path 546" d="M72.4,28.5l3.8-2.1.3.6-3.8,2.1Z"/>
    <path id="Path_547" data-name="Path 547" d="M74.1,32.4l3.5-3.5.3.7L76,31.3l-.3.3-.3.2h3.2l.3.7Z"/>
    <path id="Path_548" data-name="Path 548" d="M75.4,35.5l4.3-1.1.6,2.4-.6.2-.4-1.7-1.1.2.5,1.7-.7.2-.4-1.7-1.4.4.4,1.7-.6.1Z"/>
    <path id="Path_549" data-name="Path 549" d="M77.2,39.4l.3.5a1.38,1.38,0,0,0-.4.3,1.268,1.268,0,0,0-.1.6.764.764,0,0,0,.2.5.44.44,0,0,0,.5.1c.3,0,.5-.2.6-.7a.1.1,0,0,1,.1-.1,3.128,3.128,0,0,1,.5-1,.908.908,0,0,1,.7-.3.806.806,0,0,1,.9.3,1.086,1.086,0,0,1,.4.9,1.949,1.949,0,0,1-.1.8,1.205,1.205,0,0,1-.5.5l-.3-.6.3-.3a.627.627,0,0,0-.2-.8c-.1-.1-.2-.2-.4-.1-.3,0-.5.3-.6.8v.1a1.905,1.905,0,0,1-.5,1,.908.908,0,0,1-.7.3.959.959,0,0,1-1-.3,1.654,1.654,0,0,1-.3-2A1.024,1.024,0,0,1,77.2,39.4Z"/>
    <path id="Path_550" data-name="Path 550" d="M7.3,46.4l.3,1.4,1.4.6-1.3.8-.1,1.5-1.1-1-1.4.4.5-1.4-.8-1.2,1.5.1Z"/>
    <path id="Path_551" data-name="Path 551" d="M8.3,53.5l.6,1.3,1.5.2L9.3,56l.2,1.4-1.3-.7-1.3.7L7.2,56l-1-1,1.4-.2Z"/>
    <path id="Path_552" data-name="Path 552" d="M10.6,60.3l.9,1.2,1.5-.1-.9,1.2.5,1.4-1.4-.4-1.1.9V63l-1.2-.8,1.4-.5Z"/>
    <path id="Path_553" data-name="Path 553" d="M13.3,70.1l2.5-2.2-.6-.7.8-.7,2.1,2.4-.8.7-.6-.7L14.1,71Z"/>
    <path id="Path_554" data-name="Path 554" d="M16.6,73.7l2.8-3.4.9.8-1.1,1.3,1.2,1,1.1-1.3.9.8-2.8,3.4-1-.8,1.1-1.4-1.2-1-1.1,1.4Z"/>
    <path id="Path_555" data-name="Path 555" d="M22.3,78l2.2-3.8,2.3,1.4-.5.8L25,75.6l-.4.7,1.2.7-.5.8-1.2-.7-.4.6,1.3.8-.5.8Z"/>
    <path id="Path_556" data-name="Path 556" d="M30.8,82l1.3-4.2,1.2.4L32,82.4Z"/>
    <path id="Path_557" data-name="Path 557" d="M37.2,81.9l.2-.9,2.3.4v.3a2.6,2.6,0,0,1-.9,1.6,2.23,2.23,0,0,1-1.8.4,1.613,1.613,0,0,1-.9-.3,4.349,4.349,0,0,1-.7-.6A2.01,2.01,0,0,1,35,82a1.388,1.388,0,0,1,0-.9,1.613,1.613,0,0,1,.3-.9,4.349,4.349,0,0,1,.6-.7,2.01,2.01,0,0,1,.8-.4,1.388,1.388,0,0,1,.9,0,2.994,2.994,0,0,1,1,.4,2.178,2.178,0,0,1,.7.9l-1.1.3a1.38,1.38,0,0,0-.3-.4.764.764,0,0,0-.5-.2,1.02,1.02,0,0,0-.9.2,1.623,1.623,0,0,0-.5.9,1.232,1.232,0,0,0,.2,1,1.374,1.374,0,0,0,.8.5,1.128,1.128,0,0,0,.8-.1.664.664,0,0,0,.4-.5Z"/>
    <path id="Path_558" data-name="Path 558" d="M48,82l-.1-.9,2.3-.3v.3a2.319,2.319,0,0,1-.4,1.8,2.088,2.088,0,0,1-1.6.8,1.7,1.7,0,0,1-1,0,2.01,2.01,0,0,1-.8-.4,4.349,4.349,0,0,1-.6-.7,3.178,3.178,0,0,1-.3-.9,1.388,1.388,0,0,1,0-.9,2.01,2.01,0,0,1,.4-.8,4.349,4.349,0,0,1,.7-.6,1.613,1.613,0,0,1,.9-.3,2.462,2.462,0,0,1,1.2.1,1.456,1.456,0,0,1,.9.6l-1,.6a.85.85,0,0,0-.5-.3h-.5a1.02,1.02,0,0,0-.8.5,1.814,1.814,0,0,0,.3,2,.959.959,0,0,0,.9.2,1.489,1.489,0,0,0,.9-.4.864.864,0,0,0,.3-.6Z"/>
    <path id="Path_559" data-name="Path 559" d="M53.4,82.6l-1.3-4.2,1.2-.4c.3-.1.7-.2,1-.3a.749.749,0,0,1,.5.1,2.186,2.186,0,0,1,.5.3,3.329,3.329,0,0,1,.3.6,1.388,1.388,0,0,1,0,.9.9.9,0,0,1-.6.6l1.7,1.3-1.3.4L54,80.6l.5,1.6Zm.4-2.6H54a.85.85,0,0,0,.5-.3.3.3,0,0,0,0-.4c0-.2-.1-.3-.3-.4a.638.638,0,0,0-.6,0l-.2.1Z"/>
    <path id="Path_560" data-name="Path 560" d="M62.2,76.5a2.751,2.751,0,0,1,.2,1.8,5.937,5.937,0,0,1-.4.8,2.254,2.254,0,0,1-3.2.4A2.229,2.229,0,0,1,58,77a2.01,2.01,0,0,1,.4-.8,2.088,2.088,0,0,1,1.6-.8,2.155,2.155,0,0,1,1.7.5A1.024,1.024,0,0,1,62.2,76.5Zm-1.4,2.2a1.057,1.057,0,0,0,.6-.7,1.368,1.368,0,0,0-.9-1.6.972.972,0,0,0-.9.1,1.057,1.057,0,0,0-.6.7,1.368,1.368,0,0,0,.9,1.6.972.972,0,0,0,.9-.1Z"/>
    <path id="Path_561" data-name="Path 561" d="M63,73.3l.9-.8,1.3,1.7a2.181,2.181,0,0,0,.4.5c.1.1.2.2.3.2h.3a.758.758,0,0,0,.4-.2l.3-.3v-.3c0-.1-.1-.2-.2-.3s-.2-.3-.4-.5l-.2-.2L65,71.7l.9-.7,1.4,1.8.6.9a1.268,1.268,0,0,1,.1.6,1.445,1.445,0,0,1-.2.7,2.336,2.336,0,0,1-.7.7,2.177,2.177,0,0,1-.8.5,1.7,1.7,0,0,1-.7.1A.864.864,0,0,1,65,76a2.7,2.7,0,0,1-.7-.8l-.3-.4Z"/>
    <path id="Path_562" data-name="Path 562" d="M71.8,71.3l-.8.8-3.3-2.9.8-.9c.2-.3.5-.5.7-.8.2-.1.3-.2.5-.2a1.268,1.268,0,0,1,.6.1l.6.3a1.584,1.584,0,0,1,.5,1.2c0,.2-.1.3-.1.5a2.651,2.651,0,0,1-.5.6l-.1.2-.1.2ZM70,69.7l.2-.2a.55.55,0,0,0,.3-.5.52.52,0,0,0-.2-.4c-.1-.1-.3-.2-.4-.1a1,1,0,0,0-.5.4l-.2.1Z"/>
    <path id="Path_563" data-name="Path 563" d="M73.2,64.2l.5-1.4-.8-1.2,1.5.1.9-1.2.4,1.4,1.4.5-1.2.8v1.5l-1.2-.9Z"/>
    <path id="Path_564" data-name="Path 564" d="M76.4,57.8l.2-1.5-1.1-1,1.5-.2.6-1.3.7,1.3,1.4.2-1,1,.3,1.5-1.3-.7Z"/>
    <path id="Path_565" data-name="Path 565" d="M78.3,50.9V49.4L77,48.6l1.4-.5.4-1.4.8,1.1,1.5-.1L80.3,49l.6,1.4L79.4,50Z"/>
    <path id="Path_566" data-name="Path 566" d="M29.2,47a4.756,4.756,0,0,0,.7,2.3h-4a3.775,3.775,0,0,0,.8-2.3V37.6a4.006,4.006,0,0,0-.8-2.3h4a4.756,4.756,0,0,0-.7,2.3Z"/>
    <path id="Path_567" data-name="Path 567" d="M58.6,48.3h3.8a3.775,3.775,0,0,0-.8,2.3V53a5.378,5.378,0,0,1-4.3,1.7c-3.2,0-5.8-1.8-5.8-6.9s2.6-6.9,5.8-6.9a5.347,5.347,0,0,1,4.1,1.6l-2,2.5c-.7-1.3-1.9-2.2-4.6-2.2-.8,0-1.3.7-1.2,2.2a13.318,13.318,0,0,0,.5,3.4c.7,2.4,1.9,4.9,5.1,4.9h.2V50.7A4.069,4.069,0,0,0,58.6,48.3Z" fill="#fff"/>
  </g>
</svg>
