<?xml version="1.0" encoding="utf-8"?>
<!-- Generator: Adobe Illustrator 24.1.3, SVG Export Plug-In . SVG Version: 6.00 Build 0)  -->
<svg version="1.1" id="Layer_1" xmlns="http://www.w3.org/2000/svg" xmlns:xlink="http://www.w3.org/1999/xlink" x="0px" y="0px"
	 viewBox="0 0 316.8 90.2" style="enable-background:new 0 0 316.8 90.2;" xml:space="preserve">
<style type="text/css">
	.st0{fill:#FFFFFF;}
	.st1{fill:none;stroke:#000000;stroke-width:0.5;stroke-miterlimit:10;}
	.st2{clip-path:url(#SVGID_2_);}
	.st3{fill:#FF6700;}
	.st4{fill:#138808;}
	.st5{fill:#FFCC00;}
	.st6{fill:#FF0000;}
</style>
<circle class="st0" cx="43.1" cy="45.1" r="41.8"/>
<circle class="st1" cx="43.1" cy="45.1" r="41.8"/>
<image style="overflow:visible;opacity:0.1;enable-background:new    ;" width="379" height="380" xlink:href="7F189657.png"  transform="matrix(0.24 0 0 0.24 -1.95 -0.48)">
</image>
<g>
	<defs>
		<circle id="SVGID_1_" cx="43.5" cy="45.1" r="30.1"/>
	</defs>
	<clipPath id="SVGID_2_">
		<use xlink:href="#SVGID_1_"  style="overflow:visible;"/>
	</clipPath>
	<g class="st2">
		<path class="st3" d="M45.1,35.7C-2.4,20-62.2,49.3-109.7,33.7c2.8-11.3,5.5-22.7,8.2-34C-54.6,20.3,4.6-4.6,51.5,16.1
			C49.4,22.6,47.2,29.1,45.1,35.7z"/>
		<path class="st0" d="M38.8,55.1c-48.1-10.7-108.4,23-156.6,12.3c2.7-11.3,5.5-22.7,8.2-34C-62.1,49-2.4,19.8,45.2,35.5
			C43,42,40.9,48.6,38.8,55.1z"/>
		<path class="st4" d="M32.5,74.4c-48.8-5.7-109.6,32.2-158.4,26.5c2.7-11.3,5.5-22.7,8.2-34C-69.6,77.6-9.4,44,38.8,54.8
			C36.7,61.3,34.6,67.8,32.5,74.4z"/>
		<path class="st5" d="M38.9,54.4c47.5,15.6,107.3-13.6,154.8,2c-2.7,11.3-5.5,22.7-8.2,34c-46.8-20.6-106.1,4.2-153-16.4L38.9,54.4
			z"/>
		<path class="st6" d="M45.2,35c48.2,10.7,108.4-23,156.6-12.3c-2.7,11.3-5.5,22.7-8.2,34C146.1,41.1,86.3,70.3,38.8,54.6
			C40.9,48.1,43.1,41.6,45.2,35z"/>
		<path d="M51.5,15.8c48.9,5.8,109.6-32.3,158.5-26.5c-2.7,11.3-5.5,22.7-8.2,34C153.6,12.5,93.3,46.1,45.1,35.4
			C47.3,28.8,49.4,22.3,51.5,15.8z"/>
	</g>
</g>
<circle class="st1" cx="43.5" cy="45.1" r="30.1"/>
<path d="M9.7,40.8l-4.3-0.6l0.1-0.7l4.3,0.6L9.7,40.8z"/>
<path d="M9,34H8.7H8.4l0.3,0.2c0.1,0.1,0.2,0.1,0.3,0.2l1.9,1.7l-2.6,0.4c-0.1,0-0.2,0-0.3,0H7.7L8,36.6l0.3,0.1l2,1L10,38.4
	l-4.1-2.2l3-0.5h0.2h0.4c-0.1-0.1-0.3-0.2-0.4-0.3L9,35.2l-2.3-2l4.7,0.2l-0.2,0.6L9,34z"/>
<path d="M10.6,30.6l1.8,0.8l-0.3,0.6l-4-1.8l0.5-1c0.1-0.2,0.2-0.4,0.3-0.6c0.1-0.1,0.2-0.2,0.3-0.3c0.2-0.1,0.3-0.1,0.5-0.1
	c0.2,0,0.4,0.1,0.6,0.1c0.2,0.1,0.3,0.2,0.5,0.3c0.1,0.1,0.2,0.3,0.2,0.5c0,0.1,0,0.3,0,0.4c-0.1,0.2-0.2,0.4-0.3,0.7l-0.1,0.2
	L10.6,30.6z M10,30.4l0.1-0.2c0.1-0.2,0.2-0.5,0.2-0.8c0-0.2-0.2-0.3-0.3-0.4c-0.2-0.1-0.4-0.1-0.5,0c-0.2,0.2-0.4,0.4-0.5,0.7
	l-0.1,0.2L10,30.4z"/>
<path d="M15.4,26.1l-1.2-0.2l-0.9,1.5l0.7,1L13.5,29l-2.7-4.2l5,0.6L15.4,26.1z M12.8,26.8l0.6-1l-1.1-0.1l-0.2,0l-0.3-0.1
	c0.1,0.1,0.1,0.1,0.2,0.2l0.1,0.2L12.8,26.8z"/>
<path d="M16.4,19.5c-0.2,0-0.5,0.1-0.7,0.2c-0.2,0.1-0.4,0.3-0.6,0.5c-0.3,0.3-0.5,0.8-0.5,1.2c0.1,0.9,0.9,1.6,1.8,1.6
	c0.4,0,0.8-0.2,1.1-0.5c0.2-0.2,0.3-0.4,0.4-0.6C18,21.5,18,21.3,18,21l0.6,0.5c0,0.2-0.1,0.5-0.2,0.7c-0.1,0.2-0.2,0.4-0.4,0.6
	c-0.4,0.5-1,0.8-1.6,0.9c-0.3,0-0.6,0-0.9-0.1c-0.6-0.2-1.1-0.6-1.4-1.2c-0.1-0.3-0.2-0.6-0.2-0.9c0-0.3,0-0.6,0.1-0.9
	c0.1-0.3,0.3-0.6,0.5-0.8c0.2-0.2,0.4-0.3,0.6-0.5c0.2-0.1,0.5-0.2,0.7-0.3L16.4,19.5z"/>
<path d="M18.8,16.6l2.5,2.9L20.8,20l-2.5-2.9l-0.9,0.8L17,17.4l2.3-2l0.4,0.5L18.8,16.6z"/>
<path d="M23.5,17.8L21,14.2l0.6-0.4l2.5,3.6L23.5,17.8z"/>
<path d="M25.8,16.2l-2.1-4l3.7,1.1l0.3,0.1l0.4,0.1l-1.4-2.7l0.6-0.3l2.1,4l-3.8-1.1l-0.3-0.1L25,13.2l1.4,2.7L25.8,16.2z"/>
<path d="M32.8,10.8l1.7-0.5c0,0,0,0.1,0,0.1l0.1,0.3c0.2,0.5,0.2,1.1-0.1,1.5c-0.3,0.5-0.7,0.8-1.3,0.9c-0.3,0.1-0.7,0.1-1,0.1
	c-0.3,0-0.6-0.1-0.8-0.2c-0.3-0.1-0.5-0.3-0.7-0.6c-0.2-0.2-0.3-0.5-0.4-0.8c-0.1-0.3-0.1-0.6-0.1-0.9c0-0.3,0.1-0.6,0.3-0.9
	c0.1-0.3,0.3-0.5,0.6-0.7c0.2-0.2,0.5-0.3,0.8-0.4c0.3-0.1,0.6-0.1,0.9-0.1c0.3,0,0.6,0.2,0.9,0.3l-0.4,0.5
	c-0.2-0.1-0.4-0.2-0.6-0.2c-0.2,0-0.4,0-0.6,0.1c-0.4,0.1-0.8,0.4-1,0.8c-0.4,0.8-0.1,1.8,0.7,2.3c0.4,0.2,0.8,0.2,1.3,0.1
	c0.3-0.1,0.6-0.3,0.8-0.6c0.2-0.2,0.2-0.6,0.1-0.8V11l-1,0.3L32.8,10.8z"/>
<path d="M43.2,9.3c0-0.1,0-0.2,0-0.3c0-0.1,0-0.2-0.1-0.3c0,0.1,0,0.2-0.1,0.3c0,0.1-0.1,0.2-0.1,0.3l-1,2.4l-1.3-2.3
	c-0.1-0.1-0.1-0.2-0.1-0.3c0-0.1-0.1-0.2-0.1-0.3c0,0.1,0,0.2,0,0.3c0,0.1,0,0.2,0,0.3L40,11.6h-0.7L40.2,7l1.4,2.7
	c0,0,0.1,0.1,0.1,0.2s0.1,0.2,0.2,0.4c0-0.1,0.1-0.3,0.2-0.5c0,0,0-0.1,0-0.1l1.1-2.8l1.3,4.5h-0.7L43.2,9.3z"/>
<path d="M46,11.6l0.4-4.4l0.7,0.1l-0.4,4.4L46,11.6z"/>
<path d="M48.8,12l0.9-4.3l0.7,0.1l-0.7,3.7l1.6,0.3l-0.1,0.6L48.8,12z"/>
<path d="M52.6,12.9L54,8.7l0.7,0.2l-1.1,3.6L55,13l-0.2,0.6L52.6,12.9z"/>
<path d="M56.4,14.2l1.8-4l0.7,0.3l-1.8,4L56.4,14.2z"/>
<path d="M63.9,15.8c-0.3,0.5-0.8,0.9-1.4,1c-0.3,0.1-0.6,0.1-0.9,0c-0.3,0-0.6-0.2-0.8-0.3c-0.3-0.2-0.5-0.4-0.7-0.6
	c-0.2-0.2-0.3-0.5-0.4-0.8c-0.1-0.3-0.1-0.6,0-0.9c0-0.3,0.2-0.6,0.3-0.9c0.2-0.3,0.4-0.5,0.6-0.7c0.2-0.2,0.5-0.3,0.8-0.4
	c0.3-0.1,0.6-0.1,0.9,0c0.9,0.2,1.7,0.8,1.9,1.8c0.1,0.3,0.1,0.6,0,0.9C64.1,15.3,64,15.6,63.9,15.8z M63.2,15.5
	c0.2-0.4,0.3-0.8,0.2-1.2c0-0.2-0.1-0.4-0.3-0.6c-0.1-0.2-0.3-0.3-0.4-0.4c-0.2-0.1-0.4-0.2-0.6-0.2c-0.2,0-0.4,0-0.6,0
	c-0.2,0.1-0.4,0.1-0.6,0.3c-0.2,0.1-0.3,0.3-0.4,0.5c-0.1,0.2-0.2,0.4-0.2,0.6c0,0.2,0,0.4,0,0.6c0,0.2,0.1,0.4,0.3,0.6
	c0.1,0.2,0.3,0.3,0.5,0.4c0.2,0.1,0.4,0.2,0.6,0.2c0.2,0,0.4,0,0.6,0C62.6,16.1,63,15.9,63.2,15.5L63.2,15.5z"/>
<path d="M64.2,18.8l3-3.4l0.3,3.9c0,0.1,0,0.2,0,0.3s0,0.3,0,0.4l2-2.3l0.5,0.5l-3,3.4l-0.3-3.9c0-0.1,0-0.2,0-0.3s0-0.2,0-0.3
	l-2,2.3L64.2,18.8z"/>
<path d="M70.3,25.2l3.6-2.5l0.4,0.6l-3.1,2.2l0.9,1.3l-0.5,0.4L70.3,25.2z"/>
<path d="M72.4,28.5l3.8-2.1l0.3,0.6l-3.8,2.1L72.4,28.5z"/>
<path d="M74.1,32.4l3.5-3.5l0.3,0.7L76,31.3l-0.3,0.3l-0.3,0.2h0.3h2.9l0.3,0.7L74.1,32.4z"/>
<path d="M75.4,35.5l4.3-1.1l0.6,2.4l-0.6,0.2l-0.4-1.7l-1.1,0.2l0.5,1.7L78,37.4l-0.4-1.7l-1.4,0.4l0.4,1.7L76,37.9L75.4,35.5z"/>
<path d="M77.2,39.4l0.3,0.5c-0.2,0.1-0.3,0.2-0.4,0.3C77,40.4,77,40.6,77,40.8c0,0.2,0.1,0.4,0.2,0.5c0.1,0.1,0.3,0.2,0.5,0.1
	c0.3,0,0.5-0.2,0.6-0.7c0,0,0-0.1,0.1-0.1c0.1-0.4,0.3-0.7,0.5-1c0.2-0.2,0.4-0.3,0.7-0.3c0.3-0.1,0.7,0,0.9,0.3
	c0.3,0.2,0.4,0.6,0.4,0.9c0,0.3,0,0.6-0.1,0.8c-0.1,0.2-0.3,0.4-0.5,0.5L80,41.2c0.1-0.1,0.2-0.2,0.3-0.3c0.1-0.3,0.1-0.6-0.2-0.8
	C80,40,79.9,39.9,79.7,40c-0.3,0-0.5,0.3-0.6,0.8v0.1c-0.1,0.4-0.2,0.7-0.5,1c-0.2,0.2-0.4,0.3-0.7,0.3c-0.4,0.1-0.7,0-1-0.3
	c-0.5-0.5-0.7-1.3-0.3-2C76.7,39.7,76.9,39.5,77.2,39.4z"/>
<path d="M7.3,46.4l0.3,1.4L9,48.4l-1.3,0.8l-0.1,1.5l-1.1-1l-1.4,0.4l0.5-1.4l-0.8-1.2l1.5,0.1L7.3,46.4z"/>
<path d="M8.3,53.5l0.6,1.3l1.5,0.2l-1.1,1l0.2,1.4l-1.3-0.7l-1.3,0.7L7.2,56l-1-1l1.4-0.2L8.3,53.5z"/>
<path d="M10.6,60.3l0.9,1.2l1.5-0.1l-0.9,1.2l0.5,1.4l-1.4-0.4l-1.1,0.9v-1.5l-1.2-0.8l1.4-0.5L10.6,60.3z"/>
<path d="M13.3,70.1l2.5-2.2l-0.6-0.7l0.8-0.7l2.1,2.4l-0.8,0.7l-0.6-0.7L14.1,71L13.3,70.1z"/>
<path d="M16.6,73.7l2.8-3.4l0.9,0.8l-1.1,1.3l1.2,1l1.1-1.3l0.9,0.8l-2.8,3.4l-1-0.8l1.1-1.4l-1.2-1l-1.1,1.4L16.6,73.7z"/>
<path d="M22.3,78l2.2-3.8l2.3,1.4l-0.5,0.8L25,75.6l-0.4,0.7l1.2,0.7l-0.5,0.8l-1.2-0.7l-0.4,0.6l1.3,0.8l-0.5,0.8L22.3,78z"/>
<path d="M30.8,82l1.3-4.2l1.2,0.4l-1.3,4.2L30.8,82z"/>
<path d="M37.2,81.9l0.2-0.9l2.3,0.4c0,0,0,0.1,0,0.1c0,0.1,0,0.1,0,0.2c-0.1,0.6-0.4,1.2-0.9,1.6c-0.5,0.4-1.1,0.5-1.8,0.4
	c-0.3,0-0.6-0.1-0.9-0.3c-0.3-0.2-0.5-0.4-0.7-0.6c-0.2-0.2-0.3-0.5-0.4-0.8c-0.1-0.3-0.1-0.6,0-0.9c0-0.3,0.1-0.6,0.3-0.9
	c0.2-0.3,0.4-0.5,0.6-0.7c0.2-0.2,0.5-0.3,0.8-0.4c0.3-0.1,0.6-0.1,0.9,0c0.4,0.1,0.7,0.2,1,0.4c0.3,0.2,0.5,0.5,0.7,0.9l-1.1,0.3
	c-0.1-0.2-0.2-0.3-0.3-0.4c-0.1-0.1-0.3-0.2-0.5-0.2c-0.3-0.1-0.6,0-0.9,0.2c-0.3,0.2-0.4,0.6-0.5,0.9c-0.1,0.3,0,0.7,0.2,1
	c0.2,0.3,0.5,0.4,0.8,0.5c0.3,0.1,0.5,0,0.8-0.1c0.2-0.1,0.4-0.3,0.4-0.5L37.2,81.9z"/>
<path d="M48,82l-0.1-0.9l2.3-0.3c0,0,0,0.1,0,0.1c0,0.1,0,0.1,0,0.2c0.1,0.6,0,1.3-0.4,1.8c-0.4,0.5-1,0.8-1.6,0.8
	c-0.3,0.1-0.7,0.1-1,0c-0.3-0.1-0.6-0.2-0.8-0.4c-0.2-0.2-0.4-0.4-0.6-0.7c-0.2-0.3-0.2-0.6-0.3-0.9c-0.1-0.3-0.1-0.6,0-0.9
	c0.1-0.3,0.2-0.6,0.4-0.8c0.2-0.2,0.4-0.4,0.7-0.6c0.3-0.2,0.6-0.3,0.9-0.3c0.4-0.1,0.8,0,1.2,0.1c0.4,0.1,0.7,0.3,0.9,0.6l-1,0.6
	c-0.1-0.1-0.3-0.3-0.5-0.3c-0.2,0-0.4,0-0.5,0c-0.3,0-0.6,0.2-0.8,0.5c-0.3,0.7-0.2,1.5,0.3,2c0.2,0.2,0.6,0.3,0.9,0.2
	c0.3,0,0.7-0.2,0.9-0.4c0.2-0.2,0.3-0.4,0.3-0.6L48,82z"/>
<path d="M53.4,82.6l-1.3-4.2l1.2-0.4c0.3-0.1,0.7-0.2,1-0.3c0.2,0,0.4,0,0.5,0.1c0.2,0.1,0.4,0.2,0.5,0.3c0.1,0.2,0.2,0.3,0.3,0.6
	c0.1,0.3,0.1,0.6,0,0.9c-0.1,0.3-0.3,0.5-0.6,0.6l1.7,1.3l-1.3,0.4L54,80.6l0.5,1.6L53.4,82.6z M53.8,80L54,80
	c0.2,0,0.4-0.2,0.5-0.3c0.1-0.1,0.1-0.3,0-0.4c0-0.2-0.1-0.3-0.3-0.4c-0.2-0.1-0.4-0.1-0.6,0l-0.2,0.1L53.8,80z"/>
<path d="M62.2,76.5c0.3,0.5,0.3,1.2,0.2,1.8c-0.1,0.3-0.3,0.6-0.4,0.8c-0.8,1-2.2,1.2-3.2,0.4c-0.8-0.6-1.1-1.6-0.8-2.5
	c0.1-0.3,0.2-0.6,0.4-0.8c0.4-0.5,1-0.8,1.6-0.8c0.6-0.1,1.2,0.1,1.7,0.5C61.9,76,62.1,76.2,62.2,76.5z M60.8,78.7
	c0.3-0.1,0.5-0.4,0.6-0.7c0.1-0.7-0.2-1.4-0.9-1.6c-0.3-0.1-0.6-0.1-0.9,0.1c-0.3,0.1-0.5,0.4-0.6,0.7c-0.1,0.7,0.2,1.4,0.9,1.6
	C60.2,78.9,60.5,78.9,60.8,78.7L60.8,78.7z"/>
<path d="M63,73.3l0.9-0.8l1.3,1.7c0.1,0.2,0.3,0.4,0.4,0.5c0.1,0.1,0.2,0.2,0.3,0.2c0.1,0,0.2,0,0.3,0c0.1,0,0.3-0.1,0.4-0.2
	c0.1-0.1,0.2-0.2,0.3-0.3c0-0.1,0-0.2,0-0.3c0-0.1-0.1-0.2-0.2-0.3c-0.1-0.1-0.2-0.3-0.4-0.5l-0.2-0.2l-1.1-1.4l0.9-0.7l1.4,1.8
	c0.2,0.3,0.4,0.6,0.6,0.9c0.1,0.2,0.1,0.4,0.1,0.6c0,0.3-0.1,0.5-0.2,0.7c-0.2,0.3-0.4,0.5-0.7,0.7c-0.2,0.2-0.5,0.4-0.8,0.5
	c-0.2,0.1-0.5,0.1-0.7,0.1c-0.2,0-0.4-0.1-0.6-0.3c-0.3-0.2-0.5-0.5-0.7-0.8l-0.3-0.4L63,73.3z"/>
<path d="M71.8,71.3L71,72.1l-3.3-2.9l0.8-0.9c0.2-0.3,0.5-0.5,0.7-0.8c0.2-0.1,0.3-0.2,0.5-0.2c0.2,0,0.4,0,0.6,0.1
	c0.2,0.1,0.4,0.2,0.6,0.3c0.2,0.2,0.3,0.3,0.4,0.6c0.1,0.2,0.1,0.4,0.1,0.6c0,0.2-0.1,0.3-0.1,0.5c-0.1,0.2-0.3,0.4-0.5,0.6
	l-0.1,0.2l-0.1,0.2L71.8,71.3z M70,69.7l0.2-0.2c0.2-0.1,0.3-0.3,0.3-0.5c0-0.2-0.1-0.3-0.2-0.4c-0.1-0.1-0.3-0.2-0.4-0.1
	c-0.2,0.1-0.4,0.2-0.5,0.4L69.2,69L70,69.7z"/>
<path d="M73.2,64.2l0.5-1.4l-0.8-1.2l1.5,0.1l0.9-1.2l0.4,1.4l1.4,0.5l-1.2,0.8v1.5l-1.2-0.9L73.2,64.2z"/>
<path d="M76.4,57.8l0.2-1.5l-1.1-1l1.5-0.2l0.6-1.3l0.7,1.3l1.4,0.2l-1,1l0.3,1.5l-1.3-0.7L76.4,57.8z"/>
<path d="M78.3,50.9v-1.5l-1.3-0.8l1.4-0.5l0.4-1.4l0.8,1.1l1.5-0.1L80.3,49l0.6,1.4L79.4,50L78.3,50.9z"/>
<path d="M29.2,47c0,0.8,0.3,1.6,0.7,2.3h-4c0.5-0.7,0.8-1.4,0.8-2.3v-9.4c0-0.8-0.3-1.6-0.8-2.3h4c-0.4,0.7-0.7,1.5-0.7,2.3V47z"/>
<path class="st0" d="M58.6,48.3h3.8c-0.5,0.7-0.8,1.4-0.8,2.3V53c-1.1,1.2-2.7,1.8-4.3,1.7c-3.2,0-5.8-1.8-5.8-6.9s2.6-6.9,5.8-6.9
	c1.5-0.1,3,0.5,4.1,1.6l-2,2.5c-0.7-1.3-1.9-2.2-4.6-2.2c-0.8,0-1.3,0.7-1.2,2.2c0,1.1,0.2,2.3,0.5,3.4c0.7,2.4,1.9,4.9,5.1,4.9h0.2
	v-2.6C59.4,49.8,59.1,49,58.6,48.3z"/>
<path d="M103.5,42.3c0.1,1.2,0.4,2.3,1.1,3.2h-5.7c0.7-0.9,1.1-2,1.1-3.2V29c0-1.2-0.4-2.3-1.1-3.2h5.7c-0.6,1-1,2.1-1.1,3.2V42.3z"
	/>
<path d="M119.5,45.6h-5.2c0.5-1.1,0.9-2.2,1.1-3.4V36c0,0,0-2.2-3.2-2.2c-0.8,0-1.6,0.2-2.4,0.6v7.9c0.1,1.2,0.4,2.4,1.1,3.4h-5.6
	c0.7-0.9,1.1-2.1,1.1-3.3v-6.8c0-1-0.4-1.9-1.1-2.5l4.4-2v2.7c0.6-0.5,3.3-2.7,5.3-2.7s3.4,1.1,3.4,3.7s0,5.1,0,7.7
	C118.5,43.5,118.9,44.7,119.5,45.6L119.5,45.6z"/>
<path d="M129.4,45.9v-2.4c-0.6,0.5-3.2,2.5-4.9,2.5c-2.8,0-4.3-3.9-4.3-7.2c0-4.3,1.9-7.6,5.7-7.6c1.2,0,2.4,0.3,3.4,0.8v-3.4
	c0-1-0.4-1.9-1.1-2.6l4.4-2v17.6c0,1,0.4,1.9,1.1,2.5L129.4,45.9z M129.4,35.2c0-0.4-0.2-0.9-0.4-1.3c-0.9-1.3-2.7-1.5-4-0.7
	c-0.8,0.6-1.1,2.6-1.1,4.6c0,1.8,0.3,3.6,0.9,4.3c0.6,0.6,1.4,0.9,2.3,0.8c0.8,0,1.6-0.1,2.4-0.5L129.4,35.2z"/>
<path d="M134.4,27l2.7-2.5c0.6,1.1,1.5,2,2.6,2.6l-2.6,2.8C136,29.2,135,28.2,134.4,27z M134.5,45.7c0.7-0.9,1.1-2.1,1.1-3.3v-6.7
	c0-1-0.4-1.9-1.1-2.5l4.4-2v11.2c0.1,1.2,0.4,2.4,1.1,3.4L134.5,45.7z"/>
<path d="M153.6,44.3l-3.1,1.3c-0.8-0.3-1.3-1-1.3-1.9v-0.5c-0.6,0.6-2.6,2.6-4.2,2.6c-1.8,0-4.5-2.9-4.5-4.9c0-0.6,0.3-1.2,0.9-1.5
	c2.5-1.3,5.7-2.8,7.6-3.8c0.1-0.6-0.1-2.9-1-2.9c-1.8,0.2-3.5,1.3-4.2,3l-1.4-3.5c1.7-1.5,4.1-1.9,6.2-1c4,1.5,4,3.7,4,4.2v6.4
	C152.6,42.8,153,43.7,153.6,44.3z M149.2,42.3l-0.1-5.7l-3.7,2.2c-0.7,0.4-1.1,1.1-1.1,1.8c0,0.8,0.5,1.6,1.3,1.9
	c0.4,0.1,0.8,0.1,1.2,0.1C147.6,42.7,148.4,42.6,149.2,42.3L149.2,42.3z"/>
<path d="M168.4,45.6h-5.2c0.5-1.1,0.9-2.2,1.1-3.4V36c0,0,0-2.2-3.2-2.2c-0.8,0-1.6,0.2-2.4,0.6v7.9c0.1,1.2,0.4,2.4,1.1,3.4h-5.5
	c0.7-0.9,1.1-2.1,1.1-3.3v-6.8c0-1-0.4-1.9-1.1-2.5l4.4-2v2.7c0.6-0.5,3.3-2.7,5.3-2.7s3.4,1.1,3.4,3.7s0,5.1,0,7.7
	C167.4,43.5,167.8,44.7,168.4,45.6L168.4,45.6z"/>
<path d="M180.6,42.5c0,0.7-0.5,3.6-6.1,3.6c-4,0-5.5-2.3-5.5-2.3l2.7-2.7c1.2,1.9,3.3,3.2,5.5,3.2c0.4,0,0.9-0.2,1.2-0.5
	c0-0.7-1.7-1.7-4.4-3.4c-3.9-2.8-4.3-4.3-4.3-5.7s1.7-3.5,5-3.5c3.8,0,4.8,1.5,4.8,1.5l-1.3,3.5c0,0-2.7-3-5.4-3
	c-0.8,0-1.2,0.2-1.2,0.5c0,0.7,1.9,1.9,4.5,3.8C179.4,39.7,180.6,40.5,180.6,42.5z"/>
<path d="M185.6,27l2.7-2.5c0.6,1.1,1.5,2,2.6,2.6l-2.6,2.8C187.1,29.2,186.2,28.2,185.6,27z M185.7,45.7c0.7-0.9,1.1-2.1,1.1-3.3
	v-6.7c0-1-0.4-1.9-1.1-2.5l4.4-2v11.2c0.1,1.2,0.4,2.4,1.1,3.4L185.7,45.7z"/>
<path d="M206.1,45.6h-5.2c0.5-1.1,0.9-2.2,1.1-3.4V36c0,0,0-2.2-3.2-2.2c-0.8,0-1.6,0.2-2.4,0.6l0.1,7.9c0.1,1.2,0.4,2.4,1.1,3.4
	H192c0.7-0.9,1.1-2.1,1.1-3.3v-6.8c0-1-0.4-1.9-1.1-2.5l4.4-2v2.7c0.6-0.5,3.3-2.7,5.3-2.7s3.4,1.1,3.4,3.7s0,5.1,0,7.7
	C205.1,43.5,205.5,44.7,206.1,45.6L206.1,45.6z"/>
<path d="M222.1,36.5h5.7c-0.7,1-1.1,2.1-1.2,3.4v3.5c-1.7,1.7-4.1,2.7-6.5,2.5c-4.9,0-8.8-2.7-8.8-10.2s3.9-10.3,8.8-10.3
	c2.3-0.1,4.6,0.7,6.2,2.4l-3.1,3.7c-1.1-2-2.9-3.2-7-3.2c-1.3,0-1.9,1.1-1.9,3.2c0.1,1.7,0.3,3.4,0.8,5c1,3.6,2.8,7.2,7.7,7.2h0.3
	v-3.8C223.1,38.7,222.7,37.5,222.1,36.5z"/>
<path d="M239.4,43.6c-1.1,1.5-2.9,2.4-4.8,2.4c-3.6,0-6.1-2.4-6.1-7.7c0-4.2,1.9-7.2,6.1-7.2c1.8-0.1,3.5,0.7,4.5,2.1l-6.5,7.9
	c0,0.2,0.1,0.3,0.1,0.5c1.1,2.3,2.3,2.4,3.9,2.4C237.6,43.9,238.5,43.8,239.4,43.6z M232.3,40c0,0,2.1-3.1,2.6-3.8
	c1.5-2.2-0.1-2.9-2.5-3c-1-0.1-1.3,0.5-1.3,1.6C231.2,36.6,231.7,38.3,232.3,40z"/>
<path d="M251.4,32l-2.8,3.5c-0.5-0.9-1.4-1.5-2.5-1.5c-0.6,0-1.2,0.2-1.8,0.4v7.9c0.1,1.2,0.4,2.4,1.1,3.4h-5.6
	c0.7-0.9,1.1-2.1,1.1-3.3v-7c0-1-0.4-1.9-1.1-2.5l4.4-2v2.6c0.6-0.7,2.4-2.5,4.6-2.5C249.8,30.9,250.8,31.2,251.4,32z"/>
<path d="M269.3,42.3v-5.6c0.2-1.3-0.8-2.6-2.1-2.7c-0.2,0-0.3,0-0.5,0c-0.9,0-1.7,0.2-2.5,0.5v7.9c0.1,1.2,0.5,2.3,1.1,3.3H260
	c0.5-1.1,0.9-2.2,1.1-3.4v-6.2c0,0,0-2.2-2.8-2.2c-0.8,0-1.6,0.2-2.3,0.6l0.1,7.9c0.1,1.2,0.4,2.4,1.1,3.4h-5.5
	c0.7-0.9,1.1-2.1,1.1-3.3v-6.9c0-1-0.4-1.9-1.1-2.5l4.4-2v2.7c0.5-0.6,2.8-2.7,4.9-2.7c2.5,0,3.1,1.4,3.3,2.7
	c0.3-0.4,2.7-2.7,4.9-2.7c3.2,0,3.3,2.3,3.3,3.7v7.7c0.1,1.2,0.5,2.3,1.1,3.3h-5.2C268.7,44.6,269.1,43.4,269.3,42.3z"/>
<path d="M287.1,44.3l-3.1,1.3c-0.8-0.3-1.3-1-1.3-1.9v-0.5c-0.6,0.6-2.6,2.6-4.2,2.6c-1.8,0-4.5-2.9-4.5-4.9c0-0.6,0.3-1.2,0.9-1.5
	c2.5-1.3,5.7-2.8,7.6-3.8c0-0.6-0.1-2.9-1-2.9c-1.8,0.2-3.4,1.3-4.2,3l-1.4-3.5c1.7-1.5,4.1-1.9,6.2-1c4,1.5,4,3.7,4,4.2v6.4
	C286.1,42.8,286.4,43.7,287.1,44.3z M282.7,42.3l-0.1-5.7l-3.7,2.2c-0.7,0.4-1.1,1.1-1.1,1.8c0,0.8,0.5,1.6,1.2,1.9
	c0.4,0.1,0.8,0.1,1.2,0.1C281.1,42.7,281.9,42.6,282.7,42.3L282.7,42.3z"/>
<path d="M301.9,45.6h-5.2c0.5-1.1,0.9-2.2,1.1-3.4V36c0,0,0-2.2-3.2-2.2c-0.8,0-1.6,0.2-2.4,0.6v7.9c0.1,1.2,0.4,2.4,1.1,3.4h-5.5
	c0.7-0.9,1.1-2.1,1.1-3.3v-6.8c0-1-0.4-1.9-1.1-2.5l4.4-2v2.7c0.6-0.5,3.3-2.7,5.3-2.7c2,0,3.4,1.1,3.4,3.7s0,5.1,0,7.7
	C300.9,43.5,301.3,44.7,301.9,45.6L301.9,45.6z"/>
<path d="M316.8,31.5c-1,0.9-1.7,2-2.2,3.2l-4.6,11c-1.3,3.2-4.4,5.5-6.9,5.5s-3.4-1-3.4-1l3-2.9c0,0,0.8,2.2,2.2,2.2
	c1.9,0,2.7-3.2,2.7-4c0,0-3.3-9.1-3.9-10.5c-0.5-1.3-1.2-2.6-2.2-3.6h6.8c-0.8,0.7-1.1,1.8-0.7,2.8l2.5,7.8l2.7-7.4
	c0.4-1.5-0.3-2-1.2-3.2H316.8z"/>
<path d="M136.2,65.9v-8.4h1v8.4L136.2,65.9z"/>
<path d="M143.2,66.3l-2.6-6.1l-1.1,5.7h-1l1.7-8.8l3,7l3-7l1.7,8.8h-1l-1.1-5.7L143.2,66.3z"/>
<path d="M150.2,62.1v3.8h-1v-8.4h1.8c0.5,0,0.9,0,1.4,0.1c0.3,0.1,0.5,0.2,0.8,0.3c0.3,0.2,0.5,0.5,0.6,0.8c0.3,0.7,0.3,1.5,0,2.2
	c-0.1,0.3-0.4,0.6-0.6,0.8c-0.2,0.2-0.5,0.3-0.8,0.3c-0.5,0.1-0.9,0.1-1.4,0.1L150.2,62.1L150.2,62.1z M150.2,61.2h0.5
	c0.6,0.1,1.2-0.1,1.7-0.3c0.3-0.3,0.5-0.7,0.4-1.1c0-0.4-0.1-0.9-0.5-1.1c-0.5-0.3-1.1-0.4-1.7-0.3h-0.5L150.2,61.2z"/>
<path d="M157.2,57.1l3.9,8.8H160l-1.1-2.6h-3.3l-1.1,2.6h-1.1L157.2,57.1z M157.2,59.4l-1.3,3.1h2.7L157.2,59.4z"/>
<path d="M168.6,59.5c-0.4-0.4-0.8-0.8-1.3-1c-0.5-0.2-1-0.3-1.5-0.3c-0.9,0-1.8,0.4-2.4,1c-0.3,0.3-0.6,0.7-0.7,1.1
	c-0.2,0.4-0.2,0.9-0.2,1.4c0,0.4,0,0.7,0.1,1.1c0.1,0.3,0.2,0.6,0.4,0.9c0.3,0.5,0.7,0.8,1.3,1.1c0.5,0.3,1,0.4,1.6,0.4
	c0.5,0,1-0.1,1.5-0.3c0.5-0.2,0.9-0.6,1.3-1v1.3c-0.4,0.3-0.9,0.5-1.4,0.7c-0.5,0.2-1,0.2-1.5,0.2c-0.4,0-0.9-0.1-1.3-0.2
	c-0.4-0.1-0.8-0.3-1.2-0.6c-1.2-0.8-1.9-2.2-1.9-3.6c0-0.6,0.1-1.2,0.3-1.8c0.2-0.5,0.6-1,1-1.4c0.8-0.8,2-1.3,3.1-1.2
	c0.5,0,1,0.1,1.4,0.2c0.5,0.2,0.9,0.4,1.4,0.7L168.6,59.5z"/>
<path d="M171.8,65.9v-7.5h-2.4v-0.9h5.8v1h-2.4V66L171.8,65.9z"/>
<path d="M176.3,65.9v-8.4h1v8.4L176.3,65.9z"/>
<path d="M179.3,65.9v-8.8l6.2,6.8v-6.4h1v8.8l-6.2-6.7v6.3L179.3,65.9z"/>
<path d="M193.1,61.6h3.5v0.3c0.1,1.2-0.3,2.3-1.1,3.2c-0.8,0.8-1.9,1.2-3.1,1.2c-0.4,0-0.8,0-1.1-0.1c-0.3-0.1-0.7-0.2-1-0.4
	c-0.7-0.4-1.2-0.9-1.6-1.6c-0.4-0.7-0.6-1.5-0.6-2.3c0-0.6,0.1-1.3,0.3-1.9c0.2-0.6,0.6-1.1,1-1.5c0.4-0.4,0.8-0.6,1.3-0.8
	c0.5-0.2,1.1-0.3,1.7-0.3c0.7,0,1.4,0.1,2.1,0.4c0.6,0.3,1.1,0.8,1.5,1.3l-0.8,0.7c-0.9-1.5-2.9-2-4.5-1.1c-0.2,0.1-0.4,0.3-0.6,0.5
	c-0.6,0.7-1,1.6-0.9,2.6c0,0.9,0.3,1.8,0.9,2.5c0.6,0.7,1.5,1,2.4,1c0.8,0,1.6-0.2,2.1-0.8c0.6-0.5,0.9-1.2,0.9-2h-2.4V61.6z"/>
<path d="M205.5,66.3l-2.6-6.1l-1.1,5.7h-1l1.7-8.8l2.9,7l3-7l1.7,8.8h-1l-1.1-5.7L205.5,66.3z"/>
<path d="M211.5,65.9v-8.4h1v8.4L211.5,65.9z"/>
<path d="M214.6,65.9v-8.4h1V65h3.2v1L214.6,65.9z"/>
<path d="M219.9,65.9v-8.4h1V65h3.2v1L219.9,65.9z"/>
<path d="M225.4,65.9v-8.4h1v8.4L225.4,65.9z"/>
<path d="M237,61.7c0,0.6-0.1,1.2-0.3,1.7c-0.2,0.5-0.6,1-1,1.4c-1.8,1.7-4.6,1.7-6.4,0c-0.4-0.4-0.8-0.9-1-1.4
	c-0.5-1.1-0.5-2.3,0-3.4c0.2-0.5,0.6-1,1-1.4c0.4-0.4,0.9-0.8,1.5-1c1.1-0.5,2.4-0.5,3.5,0c0.6,0.2,1.1,0.6,1.5,1
	c0.4,0.4,0.8,0.9,1,1.4C236.9,60.5,237,61.1,237,61.7z M232.5,65.2c0.5,0,0.9-0.1,1.3-0.3c0.4-0.2,0.8-0.4,1.1-0.8
	c0.7-0.7,1-1.5,1-2.5c0-0.5-0.1-0.9-0.3-1.3c-0.3-0.8-1-1.5-1.9-1.9c-0.4-0.2-0.9-0.3-1.3-0.3c-0.5,0-0.9,0.1-1.3,0.3
	c-0.4,0.2-0.8,0.4-1.1,0.8c-0.3,0.3-0.6,0.7-0.8,1.1c-0.2,0.4-0.3,0.9-0.3,1.3c0,0.5,0.1,0.9,0.3,1.3c0.4,0.9,1,1.5,1.9,1.9
	C231.6,65.1,232.1,65.2,232.5,65.2z"/>
<path d="M238.6,65.9v-8.8l6.2,6.8v-6.4h1v8.8l-6.2-6.7v6.3H238.6z"/>
<path d="M251.3,65.9v-8.4h1V65h3.2v1L251.3,65.9z"/>
<path d="M256.7,65.9v-8.4h1v8.4L256.7,65.9z"/>
<path d="M262.2,66.3l-3.5-8.8h1.1l2.5,6.5l2.4-6.5h1.1L262.2,66.3z"/>
<path d="M266.6,65.9v-8.4h4.5v0.9h-3.5v2.4h3.5v0.9h-3.5V65h3.5v0.9L266.6,65.9z"/>
<path d="M275.9,61.2c0.5,0.2,0.9,0.5,1.2,0.9c0.3,0.4,0.4,0.9,0.4,1.4c0,0.7-0.2,1.4-0.7,1.9c-1,0.9-2.5,1-3.6,0.2
	c-0.5-0.4-0.8-0.9-0.9-1.5l0.9-0.4c0.1,0.4,0.3,0.8,0.6,1.2c0.3,0.3,0.7,0.4,1.1,0.4c0.5,0,0.9-0.1,1.2-0.4c0.3-0.3,0.5-0.7,0.5-1.1
	c0-0.4-0.1-0.7-0.3-1c-0.3-0.3-0.6-0.6-1-0.7l-1-0.4c-0.5-0.2-0.9-0.5-1.3-0.9c-0.3-0.4-0.4-0.9-0.4-1.3c0-0.6,0.2-1.1,0.7-1.5
	c0.5-0.4,1.1-0.6,1.7-0.6c0.5,0,0.9,0.1,1.3,0.3c0.4,0.2,0.7,0.6,0.9,1l-0.8,0.5c-0.2-0.3-0.4-0.5-0.6-0.7c-0.2-0.2-0.5-0.2-0.8-0.2
	c-0.3,0-0.7,0.1-0.9,0.3c-0.4,0.5-0.5,1.2-0.1,1.7c0.2,0.3,0.5,0.5,0.9,0.6L275.9,61.2z"/>
</svg>
