<?xml version="1.0" encoding="UTF-8"?>
<!DOCTYPE svg PUBLIC "-//W3C//DTD SVG 1.1//EN" "http://www.w3.org/Graphics/SVG/1.1/DTD/svg11.dtd">
<!-- Creator: CorelDRAW 2019 (64-Bit) -->
<svg xmlns="http://www.w3.org/2000/svg" xml:space="preserve" width="322.901mm" height="181.543mm" version="1.1" style="shape-rendering:geometricPrecision; text-rendering:geometricPrecision; image-rendering:optimizeQuality; fill-rule:evenodd; clip-rule:evenodd"
viewBox="0 0 11262.81 6332.22"
 xmlns:xlink="http://www.w3.org/1999/xlink">
 <defs>
  <style type="text/css">
   <![CDATA[
    .fil1 {fill:#2A3042}
    .fil0 {fill:white}
   ]]>
  </style>
 </defs>
 <g id="Layer_x0020_1">
  <metadata id="CorelCorpID_0Corel-Layer"/>
  <rect class="fil0" width="11262.81" height="6332.22"/>
  <g id="_2091921041584">
   <path class="fil1" d="M8917.35 5240.86l0.07 -2272.33 -1051.64 0.78 -1.3 1626.72c-649.68,103.86 -1169.05,-8.18 -1469.17,-371.27 -505.56,-611.66 -580.09,-2294.51 559.77,-2594.34 663.04,-174.42 1072.2,37.82 1600.29,219.58l290.21 -826.68c-593.26,-433.98 -1942.93,-494.15 -2702.95,-94.9 -1596.38,838.54 -1573.87,3552.08 -43.39,4337.91 593.48,304.74 1482.91,303.99 2160.84,181.04l517.71 -118.39c101.09,-28.9 95.39,-10.16 139.57,-88.12z"/>
   <polygon class="fil1" points="2286.95,5437.38 3338.59,5437.41 3338.78,1324.06 3338.82,1048.22 3338.78,765.24 2290.4,765.24 "/>
  </g>
 </g>
</svg>
